<?xml version="1.0" encoding="UTF-8"?>
<svg class="logo-home" width="170px" height="30px" version="1.1" viewBox="0 0 284 52" xmlns="http://www.w3.org/2000/svg">
<g fill="none" fill-rule="evenodd">
<g fill="#FFFAD2">
<path d="m58.793 17.627c0.38 0 0.57-0.183 0.57-0.544v-4.915c0-0.362-0.19-0.544-0.57-0.544h-5.427v-8.014c0-0.38-0.182-0.57-0.544-0.57h-5.594c-0.362 0-0.544 0.19-0.544 0.57v8.014h-4.357c-0.363 0-0.544 0.182-0.544 0.544v4.915c0 0.361 0.181 0.544 0.544 0.544h4.357v13.122c0 3.006 0.859 5.315 2.58 6.927 0.734 0.687 1.918 1.46 3.105 1.854 1.598 0.531 3.195 0.564 3.66 0.564 1.365 0 2.152-0.098 2.671-0.152 0.378-0.04 0.663-0.359 0.663-0.739v-4.788c0-0.29-0.2-0.464-0.432-0.433-0.05 7e-3 -0.809 0.108-1.735 0.108-1.357 0-2.336-0.371-2.933-1.114-0.597-0.742-0.897-1.892-0.897-3.45v-11.899h5.427zm62.629 11.627h-5.494c-0.441 0-0.68 0.191-0.788 0.517-1.051 2.879-3.26 4.319-6.629 4.319-2.264 0-4.071-0.753-5.421-2.258-1.344-1.501-2.017-3.582-2.022-6.245 0-4e-3 1e-3 -8e-3 1e-3 -0.012v-1e-3c0-4e-3 -1e-3 -8e-3 -1e-3 -0.012 5e-3 -2.662 0.678-4.744 2.022-6.244 1.35-1.506 3.157-2.259 5.421-2.259 3.369 0 5.578 1.44 6.629 4.32 0.108 0.326 0.347 0.516 0.788 0.516h4.299 1.195c0.215 0 0.379-0.184 0.36-0.397-0.029-0.33-0.462-4.488-4.306-7.563-2.384-1.906-5.325-2.879-8.857-2.879-4.182 0-7.657 1.341-10.417 4.022-2.757 2.676-4.137 6.166-4.143 10.471h-1e-3c0 5e-3 1e-3 9e-3 1e-3 0.013s-1e-3 8e-3 -1e-3 0.012v1e-3c0 4e-3 1e-3 8e-3 1e-3 0.012 0 5e-3 -1e-3 9e-3 -1e-3 0.013h1e-3c6e-3 4.306 1.386 7.796 4.143 10.471 2.76 2.682 6.235 4.023 10.417 4.023 3.532 0 6.473-0.974 8.857-2.88 3.844-3.075 4.277-7.232 4.306-7.562 0.019-0.214-0.145-0.398-0.36-0.398zm93.205 2.414c-1.267 1.615-2.974 2.421-5.12 2.421s-3.849-0.806-5.107-2.421c-1.258-1.614-1.888-3.645-1.888-6.094s0.63-4.481 1.888-6.096c1.258-1.614 2.961-2.421 5.107-2.421s3.853 0.807 5.12 2.421c1.268 1.615 1.903 3.647 1.903 6.096s-0.635 4.48-1.903 6.094zm5.408-16.701c-0.685-0.765-3.284-3.911-9.12-3.911-2.882 0-5.305 0.925-7.109 2.132-1.892 1.188-2.975 2.432-2.996 2.456-0.243 0.28-0.664 0.309-0.944 0.067-0.279-0.241-0.309-0.664-0.068-0.943 0.081-0.093 0.999-1.127 2.596-2.232v-0.343c0-0.379-0.183-0.57-0.544-0.57h-5.594c-0.361 0-0.544 0.191-0.544 0.57v38.288c0 0.363 0.183 0.543 0.544 0.543h5.594c0.361 0 0.544-0.18 0.544-0.543v-13.576c1.522 1.558 4.71 3.188 8.458 3.188 3.784 0 6.846-1.304 9.183-3.913 2.336-2.608 3.504-6.144 3.504-10.606 0-4.463-1.168-7.998-3.504-10.607zm-181.52 6.179c0-3.976-1.13-6.281-2.741-7.707-2.163-1.915-4.992-2.391-7.406-2.391-6.134 0-10.065 4.55-10.105 4.596-0.243 0.28-0.664 0.309-0.944 0.067-0.278-0.241-0.31-0.664-0.067-0.943 0.08-0.093 0.998-1.127 2.595-2.232v-0.343c0-0.379-0.183-0.57-0.544-0.57h-5.594c-0.362 0-0.544 0.191-0.544 0.57v26.793c0 0.363 0.182 0.544 0.544 0.544h5.594c0.361 0 0.544-0.181 0.544-0.544v-12.501-0.017c0-2.974 0.684-5.286 2.051-6.936s3.039-2.475 5.012-2.475c3.081 0 4.722 1.657 4.923 4.97v16.959c0 0.363 0.182 0.544 0.544 0.544h5.593c0.362 0 0.545-0.181 0.545-0.544v-17.84zm244.95 0c0-3.976-1.129-6.281-2.741-7.707-2.163-1.915-4.992-2.391-7.406-2.391-6.133 0-10.066 4.55-10.105 4.596-0.243 0.28-0.665 0.309-0.944 0.067-0.278-0.241-0.309-0.664-0.067-0.943 0.08-0.093 0.999-1.127 2.595-2.232v-0.343c0-0.379-0.182-0.57-0.545-0.57h-5.592c-0.363 0-0.544 0.191-0.544 0.57v26.793c0 0.363 0.181 0.544 0.544 0.544h5.592c0.363 0 0.545-0.181 0.545-0.544v-12.501-0.017c0-2.974 0.684-5.286 2.051-6.936s3.039-2.475 5.013-2.475c3.081 0 4.722 1.657 4.922 4.97v16.959c0 0.363 0.182 0.544 0.545 0.544h5.592c0.363 0 0.544-0.181 0.544-0.544l1e-3 -17.84zm-133.11 0c0-3.976-1.13-6.281-2.741-7.707-2.163-1.915-4.949-2.349-7.363-2.349-6.134 0-10.108 4.508-10.147 4.554-0.244 0.28-0.665 0.309-0.945 0.067-0.279-0.241-0.309-0.664-0.067-0.943 0.08-0.093 0.998-1.127 2.596-2.232l-1e-3 -11.422c0-0.38-0.183-0.57-0.544-0.57h-5.594c-0.361 0-0.544 0.19-0.544 0.57v37.872c0 0.363 0.183 0.544 0.544 0.544h5.594c0.361 0 0.544-0.181 0.544-0.544v-12.501h1e-3v-0.017c0-2.974 0.683-5.286 2.05-6.936 1.368-1.65 3.039-2.475 5.013-2.475 3.081 0 4.722 1.657 4.922 4.97v16.959c0 0.363 0.183 0.544 0.544 0.544h5.594c0.361 0 0.544-0.181 0.544-0.544v-17.84zm-80.58 0.991c0.561-1.566 1.489-2.804 2.785-3.715 1.293-0.91 2.738-1.365 4.332-1.365 3.767 0 6.204 1.694 7.308 5.08h-14.425zm17.644-6.682c-2.599-2.934-6.108-4.401-10.527-4.401-4.002 0-7.393 1.367-10.174 4.101-2.78 2.735-4.169 6.212-4.169 10.432 0 4.275 1.362 7.761 4.088 10.459 2.725 2.699 6.126 4.048 10.201 4.048 3.033 8e-3 6.871-0.801 9.415-2.92 2.827-2.354 4.207-6.05 4.266-6.217 0.198-0.562-0.012-0.807-0.283-0.807l-5.711 1e-3c-0.307 0-0.569 0.164-0.788 0.489-1.375 2.3-3.657 3.45-6.845 3.45-1.993 0-3.64-0.584-4.943-1.753-1.304-1.167-2.102-2.711-2.391-4.631h21.189c0.38-0.018 0.571-0.208 0.571-0.57v-0.951c0-4.22-1.3-7.797-3.899-10.73zm146.02 6.682c0.561-1.566 1.489-2.804 2.785-3.715 1.293-0.91 2.738-1.365 4.332-1.365 3.767 0 6.204 1.694 7.308 5.08h-14.425zm17.645-6.682c-2.599-2.934-6.109-4.401-10.528-4.401-4.003 0-7.393 1.367-10.174 4.101-2.78 2.735-4.169 6.212-4.169 10.432 0 4.275 1.362 7.761 4.087 10.459 2.726 2.699 6.127 4.048 10.202 4.048 3.034 8e-3 6.871-0.801 9.416-2.92 2.827-2.354 4.207-6.05 4.265-6.217 0.198-0.562-0.012-0.807-0.282-0.807l-5.712 1e-3c-0.307 0-0.568 0.164-0.788 0.489-1.375 2.3-3.657 3.45-6.845 3.45-1.993 0-3.639-0.584-4.943-1.753-1.304-1.167-2.102-2.711-2.392-4.631h21.191c0.38-0.018 0.57-0.208 0.57-0.57v-0.951c0-4.22-1.3-7.797-3.898-10.73zm-244.61-14.911h-5.926c-0.362 0-0.544 0.19-0.544 0.57v37.872c0 0.363 0.182 0.544 0.544 0.544h5.926c0.362 0 0.544-0.181 0.544-0.544v-37.872c0-0.38-0.182-0.57-0.544-0.57zm153.34 34.633c1.831 1.596 3.879 2.811 6.145 3.645 2.265 0.835 4.626 1.251 7.082 1.251 2.455 0 4.812-0.416 7.068-1.251 2.256-0.834 4.305-2.049 6.144-3.645 1.84-1.595 3.307-3.704 4.405-6.325 1.096-2.621 1.644-5.559 1.644-8.815s-0.548-6.194-1.644-8.815c-1.098-2.62-2.565-4.729-4.405-6.325-1.839-1.596-3.888-2.811-6.144-3.645s-4.613-1.252-7.068-1.252c-2.456 0-4.817 0.418-7.082 1.252-2.266 0.834-4.314 2.049-6.145 3.645-1.83 1.596-3.295 3.705-4.391 6.325-1.097 2.621-1.645 5.559-1.645 8.815s0.548 6.194 1.645 8.815c1.096 2.621 2.561 4.73 4.391 6.325zm13.227-28.706c3.344 0 6.185 1.18 8.523 3.541 2.337 2.361 3.507 5.707 3.507 10.039s-1.17 7.674-3.507 10.025c-2.338 2.352-5.179 3.528-8.523 3.528-3.345 0-6.185-1.176-8.523-3.528-2.339-2.351-3.508-5.693-3.508-10.025s1.169-7.678 3.508-10.039c2.338-2.361 5.178-3.541 8.523-3.541z"/>
</g>
</g>
</svg>
