<svg id="Layer_1" data-name="Layer 1" xmlns="http://www.w3.org/2000/svg" viewBox="0 0 116 26.67088">
  <defs>
    <style>
      .cls-1 {
        fill: #fff;
      }
    </style>
  </defs>
  <g>
    <path class="cls-1" d="M13.20231,2.59814a7.30331,7.30331,0,0,0-2.57556-1.55209A11.90952,11.90952,0,0,0,6.51034.43871H.31324A.31388.31388,0,0,0,.00956.6749.30275.30275,0,0,0,.167,1.02356a1.75854,1.75854,0,0,1,.53986.47237,1.09854,1.09854,0,0,1,.21369.71981V21.34691a1.09453,1.09453,0,0,1-.20245.69731,2.392,2.392,0,0,1-.56235.50612.32679.32679,0,0,0-.135.34865.30057.30057,0,0,0,.29242.22494H5.16069a.31436.31436,0,0,0,.31492-.31491.3038.3038,0,0,0-.21369-.29242,1.56132,1.56132,0,0,1-.51737-.44989,1.20348,1.20348,0,0,1-.17995-.70856V13.18158a6.02189,6.02189,0,0,0,1.59708.32616,10.93848,10.93848,0,0,0,1.92324-.01125,10.39152,10.39152,0,0,0,1.61957-.30367,10.07941,10.07941,0,0,0,1.1247-.37115,7.08845,7.08845,0,0,0,2.4406-1.79952,7.55272,7.55272,0,0,0,1.1472-1.777,5.61649,5.61649,0,0,0,.49486-2.45184,6.696,6.696,0,0,0-.37115-2.1032A5.40331,5.40331,0,0,0,13.20231,2.59814Zm-8.649-.20245h.21369c.17995,0,.4049,0,.69732-.01125.28117-.01125.59609-.01125.96724-.01125A4.67326,4.67326,0,0,1,9.91818,3.56538,4.52326,4.52326,0,0,1,11.07663,6.872a4.74371,4.74371,0,0,1-.5736,2.49683,4.25836,4.25836,0,0,1-1.38338,1.43962,4.81033,4.81033,0,0,1-1.72079.65232,6.43955,6.43955,0,0,1-2.83425.0225L4.55336,2.39569Z" transform="translate(0 -0.16456)"/>
    <path class="cls-1" d="M24.708,7.44559c-.20244-.09-.35991-.15745-.49487-.20244a2.9103,2.9103,0,0,0-.866-.07873,2.21034,2.21034,0,0,0-1.06846.31491,5.82872,5.82872,0,0,0-1.046.75356,10.93853,10.93853,0,0,0-.94474.96724,1.95942,1.95942,0,0,1-.135.15746V7.46809a.31656.31656,0,0,0-.11247-.23619.34891.34891,0,0,0-.25868-.06748l-3.99269.776a.30162.30162,0,0,0-.24743.29243.30484.30484,0,0,0,.21369.31491,3.26168,3.26168,0,0,1,.731.31491c.19121.10123.2137.47238.2137.68607v12.0343a.84033.84033,0,0,1-.135.56235,2.59142,2.59142,0,0,1-.5511.4049.31025.31025,0,0,0-.14621.34866.30422.30422,0,0,0,.30367.22494h4.5213a.31437.31437,0,0,0,.31491-.31492.30438.30438,0,0,0-.20244-.29242,2.72543,2.72543,0,0,1-.50612-.39365.809.809,0,0,1-.14621-.5511V11.62948a7.73459,7.73459,0,0,1,1.05722-1.03472,2.21557,2.21557,0,0,1,1.46211-.51737,1.78454,1.78454,0,0,1,.94475.23619,2.65779,2.65779,0,0,1,.73106.65233.31057.31057,0,0,0,.34866.10122.31452.31452,0,0,0,.21369-.29242V7.72677A.377.377,0,0,0,24.708,7.44559Z" transform="translate(0 -0.16456)"/>
    <path class="cls-1" d="M38.02446,9.77373A6.88864,6.88864,0,0,0,32.401,7.16442a6.77647,6.77647,0,0,0-3.16041.71981,7.38787,7.38787,0,0,0-2.35062,1.87825,8.48791,8.48791,0,0,0-1.46211,2.60931,8.88828,8.88828,0,0,0-.50612,2.958,9.89162,9.89162,0,0,0,.40489,2.74427,8.013,8.013,0,0,0,1.28216,2.59806,6.87683,6.87683,0,0,0,5.736,2.75552,6.55141,6.55141,0,0,0,3.08168-.71981A7.74277,7.74277,0,0,0,37.777,20.852,8.08153,8.08153,0,0,0,39.27289,18.254a8.52967,8.52967,0,0,0,.51736-2.92422,10.70029,10.70029,0,0,0-.41614-2.93547A7.73583,7.73583,0,0,0,38.02446,9.77373ZM34.21172,20.99824a2.87458,2.87458,0,0,1-1.65331.53986h-.11247a2.73654,2.73654,0,0,1-1.5071-.41614,3.81969,3.81969,0,0,1-1.24842-1.25966,7.607,7.607,0,0,1-.84352-1.957,9.87934,9.87934,0,0,1-.34866-2.41811,12.537,12.537,0,0,1,.16871-2.45185,7.327,7.327,0,0,1,.65232-2.06945,4.1731,4.1731,0,0,1,1.1472-1.43961A2.66682,2.66682,0,0,1,32.11978,8.964h.11247a2.78825,2.78825,0,0,1,1.58583.44988A4.31543,4.31543,0,0,1,35.089,10.76347a6.64686,6.64686,0,0,1,.78729,2.002,13.73771,13.73771,0,0,1,.33741,2.36187,11.22166,11.22166,0,0,1-.14621,2.49684,6.52565,6.52565,0,0,1-.67482,2.01321A4.61228,4.61228,0,0,1,34.21172,20.99824Z" transform="translate(0 -0.16456)"/>
    <path class="cls-1" d="M79.53718,21.763a1.09324,1.09324,0,0,1-.80979-.46113,2.16366,2.16366,0,0,1-.23618-1.07971V7.46809a.31656.31656,0,0,0-.11247-.23619.34892.34892,0,0,0-.25868-.06748l-3.89147.776a.30833.30833,0,0,0-.03374.59609,4.39544,4.39544,0,0,1,.70856.31492c.1912.10122.2137.47237.2137.68607v9.85238A8.48922,8.48922,0,0,1,73.79,20.42464a3.27906,3.27906,0,0,1-1.79952.43863,2.79042,2.79042,0,0,1-2.13693-.956,4.17359,4.17359,0,0,1-.88852-2.92422v-9.515a.31656.31656,0,0,0-.11247-.23619.34891.34891,0,0,0-.25868-.06748l-3.92521.776a.30833.30833,0,0,0-.03374.59609l.39365.135a.84951.84951,0,0,1,.25868.14621.63786.63786,0,0,1,.16871.23619,1.30811,1.30811,0,0,1,.06747.49486v7.45677A8.03491,8.03491,0,0,0,66.052,20.121a5.65735,5.65735,0,0,0,1.32714,1.97948A4.63333,4.63333,0,0,0,69.1,23.12393a5.71761,5.71761,0,0,0,4.69-.48362,10.71115,10.71115,0,0,0,1.43961-1.091c.01125.09.0225.17995.03374.24743a2.19676,2.19676,0,0,0,.24744.70856,1.91767,1.91767,0,0,0,.44988.50612,4.87738,4.87738,0,0,0,.56235.37115.3666.3666,0,0,0,.14621.045.3283.3283,0,0,0,.10122-.0225l2.823-1.03472a.31689.31689,0,0,0-.05623-.60734Z" transform="translate(0 -0.16456)"/>
    <path class="cls-1" d="M92.51622,8.80648a5.79989,5.79989,0,0,0-2.06945-1.24842,6.89213,6.89213,0,0,0-2.22691-.39364,7.38341,7.38341,0,0,0-3.40785.76479,7.50712,7.50712,0,0,0-2.44061,1.957,8.4536,8.4536,0,0,0-1.46211,2.64305,8.73479,8.73479,0,0,0-.49487,2.823A8.5268,8.5268,0,0,0,80.943,18.299a8.18827,8.18827,0,0,0,1.52959,2.57556A7.73142,7.73142,0,0,0,84.902,22.719a7.29938,7.29938,0,0,0,3.21665.69732A6.65018,6.65018,0,0,0,90.638,22.944a6.84786,6.84786,0,0,0,1.99072-1.23717A6.21532,6.21532,0,0,0,93.96706,19.941a5.05239,5.05239,0,0,0,.53986-2.06945.32443.32443,0,0,0-.24742-.31491.29981.29981,0,0,0-.34866.1912,3.61855,3.61855,0,0,1-.69731,1.091,5.79217,5.79217,0,0,1-1.16969,1.03472,7.61849,7.61849,0,0,1-1.47336.7648,4.47259,4.47259,0,0,1-1.56333.29242,4.52393,4.52393,0,0,1-2.12569-.47237,4.47185,4.47185,0,0,1-1.51835-1.25967,5.57158,5.57158,0,0,1-.92225-1.84451,8.17167,8.17167,0,0,1-.31492-2.2494v-.59609H94.327a.30506.30506,0,0,0,.30367-.31491,7.897,7.897,0,0,0-.5961-3.19415A6.62,6.62,0,0,0,92.51622,8.80648Zm-8.22156,3.869a6.12481,6.12481,0,0,1,.32617-1.20343,4.83051,4.83051,0,0,1,.731-1.3159,3.12643,3.12643,0,0,1,3.67777-.98973,2.6185,2.6185,0,0,1,1.001.68606,3.54231,3.54231,0,0,1,.70856,1.23718,5.3523,5.3523,0,0,1,.26993,1.58582Z" transform="translate(0 -0.16456)"/>
    <path class="cls-1" d="M104.74173,15.23977a7.99631,7.99631,0,0,0-1.45087-1.11345c-.51736-.31491-1.046-.61858-1.56333-.92225a17.54764,17.54764,0,0,1-1.99072-1.30466,1.63766,1.63766,0,0,1-.61858-1.38338,1.34615,1.34615,0,0,1,.12371-.53985,1.50493,1.50493,0,0,1,.3824-.52862,2.05908,2.05908,0,0,1,.66358-.40489,2.65651,2.65651,0,0,1,.956-.15746,2.27154,2.27154,0,0,1,1.15845.29243,3.70453,3.70453,0,0,1,.92225.80978,5.4078,5.4078,0,0,1,.70857,1.13595,10.44685,10.44685,0,0,1,.48362,1.24842.3072.3072,0,0,0,.33742.21369.31285.31285,0,0,0,.25868-.30367V8.39035a.33138.33138,0,0,0-.1687-.28118,8.0623,8.0623,0,0,0-2.10319-.78729,8.32793,8.32793,0,0,0-1.59707-.17995,6.01651,6.01651,0,0,0-2.39562.41614,4.61069,4.61069,0,0,0-1.57458,1.05722,3.97838,3.97838,0,0,0-.87727,1.40587,4.32041,4.32041,0,0,0-.25869,1.38338,4.587,4.587,0,0,0,.17995,1.3384,3.32885,3.32885,0,0,0,.60734,1.16969,6.14176,6.14176,0,0,0,1.091,1.05721,15.18682,15.18682,0,0,0,1.63081,1.07972l1.49586.85477a6.32874,6.32874,0,0,1,1.03472.70856,2.30771,2.30771,0,0,1,.5736.69732,2.01156,2.01156,0,0,1,.18.866,2.2584,2.2584,0,0,1-.11247.64108,2.18917,2.18917,0,0,1-.41614.75355,2.44223,2.44223,0,0,1-.80978.62983,2.89235,2.89235,0,0,1-1.30465.25868,2.64675,2.64675,0,0,1-1.32715-.33741,4.05,4.05,0,0,1-1.10221-.92225,5.83032,5.83032,0,0,1-.84353-1.34964,8.71722,8.71722,0,0,1-.55111-1.57459.29987.29987,0,0,0-.33741-.23618.30424.30424,0,0,0-.26993.30367v4.18388a.31175.31175,0,0,0,.14622.25869,19.52137,19.52137,0,0,0,1.912,1.046,6.04019,6.04019,0,0,0,2.56433.52861,6.71061,6.71061,0,0,0,1.93448-.30367,6.289,6.289,0,0,0,1.85575-.88851,5.0643,5.0643,0,0,0,1.40588-1.48461,4.03769,4.03769,0,0,0,.56235-2.13693,4.08312,4.08312,0,0,0-.42739-1.90075A5.54082,5.54082,0,0,0,104.74173,15.23977Z" transform="translate(0 -0.16456)"/>
    <path class="cls-1" d="M115.80879,20.61584a.31422.31422,0,0,0-.33741.06749c-.10122.10122-.21369.20244-.31492.29242a1.55077,1.55077,0,0,1-.31492.21369,2.30752,2.30752,0,0,1-.49487.16871,3.68811,3.68811,0,0,1-1.57458-.0225,2.05537,2.05537,0,0,1-.83229-.38239,2.308,2.308,0,0,1-.68606-.911,4.05848,4.05848,0,0,1-.29242-1.68706V9.515h4.22887a.31437.31437,0,0,0,.31493-.31491V7.83924a.31437.31437,0,0,0-.31493-.31492H111.0288v-2.643a.30648.30648,0,0,0-.19119-.28118.31422.31422,0,0,0-.33741.06748l-4.21763,4.34135a.31418.31418,0,0,0-.06748.33741.30648.30648,0,0,0,.28117.1912h1.091v8.87389a4.8401,4.8401,0,0,0,1.38338,3.74526,4.89233,4.89233,0,0,0,3.44159,1.27091,3.72711,3.72711,0,0,0,1.40587-.24743,4.15684,4.15684,0,0,0,1.10222-.60734,3.81949,3.81949,0,0,0,.7648-.776A1.52467,1.52467,0,0,0,116,20.91952.31517.31517,0,0,0,115.80879,20.61584Z" transform="translate(0 -0.16456)"/>
    <path class="cls-1" d="M64.0388,25.49705a5.34043,5.34043,0,0,1-1.02348.09,4.85664,4.85664,0,0,1-4.84746-3.79024c-.03374-.10122-.06748-.1912-.09-.28117a8.48746,8.48746,0,0,0,2.03571-1.66456,11.69644,11.69644,0,0,0,3.12666-7.9179,11.28378,11.28378,0,0,0-3.43034-8.6377,10.9642,10.9642,0,0,0-3.49781-2.2719A11.48418,11.48418,0,0,0,52.45438.16878a10.56039,10.56039,0,0,0-4.81372.9335,11.355,11.355,0,0,0-3.5653,2.6318,11.58213,11.58213,0,0,0-2.26065,3.70027,12.17219,12.17219,0,0,0-.821,4.09391,11.66255,11.66255,0,0,0,.73106,4.51005,11.43607,11.43607,0,0,0,2.17067,3.63278,11.23,11.23,0,0,0,3.23914,2.51933,10.72866,10.72866,0,0,0,4.00393,1.16969l2.59806-.135a10.27464,10.27464,0,0,0,1.65331-.3824c.06748.20245.135.41614.1912.62983.60734,2.19317,2.26065,3.36286,4.79122,3.36286a12.13435,12.13435,0,0,0,3.869-.73106.316.316,0,0,0,.18-.38239A.33893.33893,0,0,0,64.0388,25.49705ZM50.33994,17.86033a.31382.31382,0,0,0,.06749.61858h.135a5.87439,5.87439,0,0,1,3.85773,2.47434,6.58738,6.58738,0,0,1-4.83622-.22494A7.00043,7.00043,0,0,1,47.202,18.92879a9.78908,9.78908,0,0,1-1.732-3.11542,13.43429,13.43429,0,0,1-.67482-4.4988,12.54382,12.54382,0,0,1,.56235-3.89147,8.44485,8.44485,0,0,1,1.55208-2.868,6.83893,6.83893,0,0,1,2.31688-1.78827,6.73113,6.73113,0,0,1,2.913-.61859,6.2979,6.2979,0,0,1,2.90173.67482A6.55436,6.55436,0,0,1,57.32433,4.7913a10.0058,10.0058,0,0,1,1.51835,3.14916,14.746,14.746,0,0,1,.5511,4.1389,12.38429,12.38429,0,0,1-.5511,3.85772,8.9758,8.9758,0,0,1-1.5071,2.90173c-.10123.12372-.16871.21369-.22495.29242a2.39,2.39,0,0,1-.20244.24744,5.68516,5.68516,0,0,0-4.03768-1.822A11.32614,11.32614,0,0,0,50.33994,17.86033Z" transform="translate(0 -0.16456)"/>
  </g>
</svg>
